<mxfile host="app.diagrams.net" modified="2024-02-25T14:45:51.682Z" agent="Mozilla/5.0 (Macintosh; Intel Mac OS X 10_15_7) AppleWebKit/605.1.15 (KHTML, like Gecko) Version/17.3.1 Safari/605.1.15" version="23.1.5" etag="qp8gTyP83jGCZSy9bOM1" type="github">
  <diagram name="Страница — 1" id="Jler92Sf6NgUoxF8YKub">
    <mxGraphModel>
      <root>
        <mxCell id="0" />
        <mxCell id="1" parent="0" />
      </root>
    </mxGraphModel>
  </diagram>
</mxfile>
